<svg xmlns="http://www.w3.org/2000/svg" viewBox="0 0 512 512">
  <defs>
    <linearGradient id="g" x1="0" y1="0" x2="1" y2="1">
      <stop offset="0%" stop-color="#FBE4DC"/>
      <stop offset="100%" stop-color="#D88A78"/>
    </linearGradient>
  </defs>
  <rect width="512" height="512" rx="96" fill="url(#g)"/>
  <g transform="translate(256 256)">
    <ellipse cx="0" cy="40" rx="130" ry="20" fill="#5B3A29" opacity="0.15"/>
    <path d="M-110 -60 Q-110 -110 -60 -110 L60 -110 Q110 -110 110 -60 L110 30 Q110 80 60 80 L-60 80 Q-110 80 -110 30 Z"
          fill="#FBF7F2" stroke="#5B3A29" stroke-width="6"/>
    <path d="M-100 -55 Q-100 -100 -55 -100 L55 -100 Q100 -100 100 -55 L100 25 Q100 70 55 70 L-55 70 Q-100 70 -100 25 Z"
          fill="#C97B5E"/>
    <path d="M-100 -10 Q-50 30 0 -10 Q50 30 100 -10 L100 25 Q100 70 55 70 L-55 70 Q-100 70 -100 25 Z"
          fill="#8E4D34"/>
    <circle cx="-40" cy="-30" r="6" fill="#5B3A29"/>
    <circle cx="30" cy="-25" r="6" fill="#5B3A29"/>
    <rect x="-22" y="-130" width="44" height="28" fill="#E8AFA0" stroke="#5B3A29" stroke-width="4"/>
    <path d="M0 -130 L0 -160" stroke="#5B3A29" stroke-width="6" stroke-linecap="round"/>
    <path d="M0 -160 Q15 -150 0 -140" fill="none" stroke="#D88A78" stroke-width="6" stroke-linecap="round"/>
  </g>
</svg>
